<?xml version="1.0" standalone="no"?>
<!DOCTYPE svg PUBLIC "-//W3C//DTD SVG 20010904//EN"
 "http://www.w3.org/TR/2001/REC-SVG-20010904/DTD/svg10.dtd">
<svg version="1.0" xmlns="http://www.w3.org/2000/svg"
 width="512.000000pt" height="512.000000pt" viewBox="0 0 512.000000 512.000000"
 preserveAspectRatio="xMidYMid meet">
<metadata>
Created by potrace 1.14, written by Peter Selinger 2001-2017
</metadata>
<g transform="translate(0.000000,512.000000) scale(0.100000,-0.100000)"
fill="#000000" stroke="none">
<path d="M384 5068 c4 -29 11 -54 17 -56 12 -5 12 -48 -1 -72 -11 -20 8 -292
20 -285 10 6 22 -203 25 -423 2 -100 7 -194 13 -210 6 -15 16 -72 21 -127 20
-186 32 -280 46 -360 33 -186 77 -405 94 -470 56 -206 71 -426 37 -525 -10
-30 -25 -62 -31 -70 -26 -31 -126 -181 -232 -350 -121 -192 -237 -397 -332
-588 l-61 -123 2 -164 3 -164 62 77 c34 42 83 97 108 122 l46 45 -8 -45 c-4
-25 -8 -94 -7 -155 1 -98 5 -120 34 -198 17 -48 41 -97 52 -110 18 -20 19 -20
13 -2 -25 68 -45 181 -45 251 0 83 25 204 57 272 23 51 95 166 106 171 13 5
77 74 129 138 24 29 51 52 61 53 21 0 21 12 -4 -128 -12 -64 -19 -136 -16
-159 2 -24 1 -41 -3 -38 -23 14 -27 -482 -4 -635 30 -209 94 -467 148 -600 14
-35 25 -64 23 -65 -1 -2 -23 7 -49 19 -39 17 -48 26 -48 46 0 23 -11 44 -62
119 -10 14 -36 62 -58 106 -61 119 -70 135 -112 198 -51 76 -87 97 -161 97
-49 0 -62 -4 -81 -25 -24 -26 -46 -86 -46 -128 l0 -25 -60 35 c-33 20 -60 42
-60 49 0 7 -5 16 -10 19 -7 4 -10 -95 -10 -289 l0 -296 2503 0 2504 0 -64 198
c-35 108 -77 238 -93 287 -16 50 -39 133 -51 185 -12 52 -32 142 -45 200 -55
238 -105 531 -113 650 -5 74 -14 141 -24 165 -17 43 -37 142 -37 184 0 25 2
24 44 -19 24 -25 90 -90 147 -144 93 -90 104 -104 110 -145 10 -58 3 -142 -22
-299 -12 -67 -19 -128 -17 -134 6 -16 63 142 89 241 10 41 19 97 19 125 l0 51
85 -85 85 -85 0 259 0 259 -67 116 c-101 175 -371 618 -398 651 -6 8 -17 53
-24 100 -7 47 -21 135 -31 195 -37 225 -70 444 -84 565 -28 238 -33 295 -62
745 -3 50 -12 159 -20 244 -8 85 -14 161 -14 169 0 9 -3 12 -7 8 -5 -4 -22 91
-39 211 l-30 218 -543 3 c-425 2 -545 -1 -555 -10 -13 -14 -100 -131 -138
-186 -13 -18 -28 -39 -33 -45 -29 -33 -148 -217 -174 -269 -8 -16 -18 -28 -22
-28 -5 0 -41 22 -81 49 -40 26 -124 79 -186 116 -107 64 -115 67 -139 54 -42
-22 -133 -109 -177 -169 -117 -157 -189 -241 -199 -231 -6 6 -17 11 -24 11
-18 0 -118 78 -283 221 -174 151 -292 272 -285 291 4 11 -28 45 -100 107
l-105 91 -461 0 -462 0 7 -52z m371 -4125 c19 -140 43 -265 53 -273 4 -3 8
-27 9 -55 2 -27 19 -116 39 -197 47 -190 41 -212 -41 -137 -64 59 -114 146
-128 221 -6 35 -14 65 -18 68 -29 21 -28 590 1 590 4 0 10 19 14 43 3 23 14
78 24 122 l17 80 7 -172 c4 -95 14 -225 23 -290z m349 -426 c-71 -177 -110
-263 -123 -272 -13 -8 -14 1 -2 23 5 9 14 60 20 112 16 127 54 276 94 361 l32
70 18 -76 18 -76 -57 -142z"/>
</g>
</svg>
